<svg xmlns="http://www.w3.org/2000/svg" width="875" height="194" viewBox="0 0 875 194">
  <g fill="#0085CA" fill-rule="evenodd">
    <polygon points="557.06 0 514.688 0 501.779 21.861 541.026 21.861"/>
    <g transform="translate(0 28)">
      <path d="M171.5371 4.5664L135.8641 141.8164C134.5541 146.8584 135.6281 152.1074 138.8101 156.2244 141.9941 160.3364 146.8041 162.6964 152.0071 162.6964L182.7501 162.6964 223.8521 4.5664 171.5371 4.5664zM268.1714 122.6221C267.9254 122.3021 267.8414 121.8861 267.9404 121.5001L298.3364 4.5661 247.5254 4.5661 211.7784 142.0911C210.4074 147.3651 211.3874 152.6761 214.4664 156.6561 217.4364 160.4941 222.0884 162.6971 227.2314 162.6971L301.5724 162.6971 311.8584 123.1251 269.1994 123.1251C268.7964 123.1251 268.4174 122.9371 268.1714 122.6221M382.1221 122.6221C381.8761 122.3021 381.7921 121.8861 381.8911 121.5001L412.2851 4.5661 361.4731 4.5661 325.7291 142.0911C324.3581 147.3651 325.3381 152.6761 328.4171 156.6561 331.3871 160.4941 336.0391 162.6971 341.1801 162.6971L415.5231 162.6971 425.8091 123.1251 383.1501 123.1251C382.7471 123.1251 382.3691 122.9371 382.1221 122.6221M438.3115 142.0908C436.9405 147.3648 437.9205 152.6758 440.9995 156.6558 443.9695 160.4938 448.6225 162.6968 453.7625 162.6968L526.6595 162.6968 536.9445 123.1248 493.5605 123.1248C493.1595 123.1248 492.7785 122.9368 492.5325 122.6218 492.2865 122.3018 492.2025 121.8858 492.3005 121.5008L497.1245 102.9448C497.2735 102.3718 497.7905 101.9708 498.3825 101.9708L540.0315 101.9708 549.7525 64.5718 508.7795 64.5718C508.3745 64.5718 507.9985 64.3838 507.7515 64.0688 507.5055 63.7488 507.4215 63.3328 507.5205 62.9468L512.1555 45.1128C512.3055 44.5388 512.8235 44.1378 513.4145 44.1378L555.7895 44.1378 566.0745 4.5668 474.0555 4.5668 438.3115 142.0908zM99.334 4.5664L56.374 75.2874 48.787 104.3214C48.652 104.9764 48.101 105.3974 47.37 105.3464 46.705 105.2754 46.203 104.7074 46.215 104.0314L51.995 4.5664 4.194 4.5664.389 142.4204C1.894 153.8944 11.915 162.6964 23.688 162.6964L49.616 162.6964 152.359 4.5664 99.334 4.5664zM829.6992 84.1592C828.7792 89.3002 826.9692 94.1842 824.2992 98.6732 821.6312 103.1322 818.3522 107.0292 814.5212 110.3102 810.7202 113.5632 806.4222 116.1442 801.7642 117.9432 797.0822 119.7702 792.2102 120.6212 787.2602 120.4692 782.2822 120.3142 777.7452 119.1762 773.6992 117.0522 769.6802 114.9582 766.2832 112.1112 763.6152 108.5732 760.9472 105.0642 759.0592 100.9232 757.9762 96.3182 756.8932 91.6872 756.8022 86.7442 757.7222 81.5462 758.6442 76.3762 760.4542 71.5182 763.1242 67.0312 765.7642 62.5992 769.0692 58.7022 772.8732 55.4222 776.6752 52.1692 780.9732 49.5882 785.6572 47.7612 795.0802 44.1102 805.6582 44.4642 813.6962 48.6522 817.7422 50.7762 821.1372 53.6212 823.8062 57.1312 826.4752 60.6392 828.3622 64.7832 829.4452 69.4142 830.5282 74.0462 830.5932 79.0162 829.6992 84.1592M855.5582 27.1302C825.9592-2.7308 783.2732-5.8458 748.0592 19.5012 724.5562 36.4272 712.2952 64.2352 703.8182 79.7692 695.3152 95.3322 672.8502 126.1092 639.7992 120.2742 608.9852 114.8352 599.6932 66.0752 643.0372 48.5082 660.8822 41.2162 682.1382 53.1642 683.5292 55.5452 685.9082 49.2352 703.4702 24.2612 712.6422 15.8382 678.6952-6.5888 627.7422-5.5348 595.8532 24.7782 579.1142 40.6882 566.9452 62.5092 566.1242 94.7062 566.1242 117.3262 577.5532 138.4062 593.6212 150.5612 613.8582 165.3102 642.5112 168.7232 671.7132 162.1802 697.0372 155.4572 717.8742 137.1932 735.3032 114.8592 736.2792 113.6062 737.4172 112.2392 738.5922 113.3082 739.3592 114.0092 738.5382 115.3412 738.5382 115.3412L723.9482 140.5262C730.3022 147.9142 742.5162 157.6222 759.6462 161.9672 774.2702 165.6772 795.8892 167.2692 817.0862 158.3822 837.4452 149.5852 851.8452 134.8912 861.1932 120.3402 881.8492 88.1812 875.8842 47.6322 855.5582 27.1302"/>
    </g>
  </g>
</svg>
