<svg xmlns="http://www.w3.org/2000/svg" width="23" height="23" viewBox="0 0 23 23">
  <path fill="#0082C7" fill-rule="evenodd" d="M54.75,122.1875 C54.9446624,122.1875 55.1131178,122.258626 55.2553711,122.400879 C55.3976244,122.543132 55.46875,122.711588 55.46875,122.90625 L55.46875,137.28125 C55.46875,137.475912 55.3976244,137.644368 55.2553711,137.786621 C55.1131178,137.928874 54.9446624,138 54.75,138 L49.71875,138 C49.5240876,138 49.3556322,137.928874 49.2133789,137.786621 C49.0711256,137.644368 49,137.475912 49,137.28125 L49,122.90625 C49,122.711588 49.0711256,122.543132 49.2133789,122.400879 C49.3556322,122.258626 49.5240876,122.1875 49.71875,122.1875 L54.75,122.1875 Z M54.03125,136.5625 L54.03125,123.625 L50.4375,123.625 L50.4375,136.5625 L54.03125,136.5625 Z M62.65625,126.455078 C62.8509124,126.455078 63.0193678,126.526204 63.1616211,126.668457 C63.3038744,126.81071 63.375,126.979166 63.375,127.173828 L63.375,137.28125 C63.375,137.475912 63.3038744,137.644368 63.1616211,137.786621 C63.0193678,137.928874 62.8509124,138 62.65625,138 L57.625,138 C57.4153635,138 57.2431647,137.928874 57.1083984,137.786621 C56.9736321,137.644368 56.90625,137.475912 56.90625,137.28125 L56.90625,127.173828 C56.90625,126.979166 56.9736321,126.81071 57.1083984,126.668457 C57.2431647,126.526204 57.4153635,126.455078 57.625,126.455078 L62.65625,126.455078 Z M61.9375,136.5625 L61.9375,127.892578 L58.34375,127.892578 L58.34375,136.5625 L61.9375,136.5625 Z M70.5625,115 C70.7571624,115 70.9256178,115.071126 71.0678711,115.213379 C71.2101244,115.355632 71.28125,115.524088 71.28125,115.71875 L71.28125,137.28125 C71.28125,137.475912 71.2101244,137.644368 71.0678711,137.786621 C70.9256178,137.928874 70.7571624,138 70.5625,138 L65.53125,138 C65.3365876,138 65.1681322,137.928874 65.0258789,137.786621 C64.8836256,137.644368 64.8125,137.475912 64.8125,137.28125 L64.8125,115.71875 C64.8125,115.524088 64.8836256,115.355632 65.0258789,115.213379 C65.1681322,115.071126 65.3365876,115 65.53125,115 L70.5625,115 Z M69.84375,136.5625 L69.84375,116.4375 L66.25,116.4375 L66.25,136.5625 L69.84375,136.5625 Z" transform="rotate(-180 35.64 69)"/>
</svg>
