<svg xmlns="http://www.w3.org/2000/svg" width="23" height="24" viewBox="0 0 23 24">
  <path fill="#0082C7" fill-rule="evenodd" d="M70.3828125,192.482422 C70.8020854,192.36263 71.1764306,192.430012 71.5058594,192.68457 C71.8352881,192.939129 72,193.27604 72,193.695312 L72,211.169922 C72,211.529299 71.8802095,211.862466 71.640625,212.169434 C71.4010405,212.476401 71.1090512,212.674804 70.7646484,212.764648 L61.2636719,215.347656 C61.1139315,215.392578 60.96045,215.422526 60.8032227,215.4375 C60.6459953,215.452474 60.5074876,215.459961 60.3876953,215.459961 C60.2229809,215.459961 60.0620125,215.448731 59.9047852,215.42627 C59.7475578,215.403808 59.6090501,215.377604 59.4892578,215.347656 L50.2353516,212.787109 C49.8909488,212.682291 49.5989595,212.476401 49.359375,212.169434 C49.1197905,211.862466 49,211.529299 49,211.169922 L49,193.695312 C49,193.27604 49.1647119,192.939129 49.4941406,192.68457 C49.8235694,192.430012 50.1979146,192.36263 50.6171875,192.482422 L59.8710938,195.042969 C59.990886,195.072917 60.1593414,195.087891 60.3764648,195.087891 C60.5935883,195.087891 60.7620437,195.072917 60.8818359,195.042969 L70.3828125,192.482422 Z M59.78125,213.932617 L59.78125,196.480469 C59.7363279,196.480469 59.687663,196.472982 59.6352539,196.458008 C59.5828448,196.443034 59.5341799,196.435547 59.4892578,196.435547 L50.4375,193.919922 L50.4375,211.169922 C50.4375,211.214844 50.4562173,211.259765 50.4936523,211.304688 C50.5310874,211.34961 50.5647785,211.379557 50.5947266,211.394531 L59.78125,213.932617 Z M70.5625,211.169922 L70.5625,193.919922 L61.2636719,196.435547 L61.21875,196.435547 L61.21875,213.865234 L70.3828125,211.394531 C70.4127606,211.379557 70.4501951,211.34961 70.4951172,211.304688 C70.5400393,211.259765 70.5625,211.214844 70.5625,211.169922 Z M63.4199219,200.658203 C63.2701815,200.658203 63.1279304,200.613282 62.9931641,200.523438 C62.8583978,200.433593 62.7685549,200.306316 62.7236328,200.141602 C62.6787107,199.946939 62.7049149,199.76351 62.8022461,199.591309 C62.8995773,199.419107 63.038085,199.30306 63.2177734,199.243164 L68.2490234,197.828125 C68.4436859,197.783203 68.627115,197.809407 68.7993164,197.906738 C68.9715178,198.004069 69.0875648,198.150064 69.1474609,198.344727 C69.192383,198.524415 69.1661789,198.700357 69.0688477,198.872559 C68.9715164,199.04476 68.8330087,199.160807 68.6533203,199.220703 L63.6220703,200.635742 C63.5921222,200.650716 63.5584312,200.658203 63.5209961,200.658203 L63.4199219,200.658203 Z M63.4199219,204.970703 C63.2701815,204.970703 63.1279304,204.925782 62.9931641,204.835938 C62.8583978,204.746093 62.7685549,204.618816 62.7236328,204.454102 C62.6787107,204.259439 62.7049149,204.07601 62.8022461,203.903809 C62.8995773,203.731607 63.038085,203.61556 63.2177734,203.555664 L68.2490234,202.140625 C68.4436859,202.095703 68.627115,202.121907 68.7993164,202.219238 C68.9715178,202.316569 69.0875648,202.462564 69.1474609,202.657227 C69.192383,202.836915 69.1661789,203.012857 69.0688477,203.185059 C68.9715164,203.35726 68.8330087,203.473307 68.6533203,203.533203 L63.6220703,204.948242 C63.5921222,204.963216 63.5584312,204.970703 63.5209961,204.970703 L63.4199219,204.970703 Z M63.4199219,209.283203 C63.2701815,209.283203 63.1279304,209.238282 62.9931641,209.148438 C62.8583978,209.058593 62.7685549,208.931316 62.7236328,208.766602 C62.6787107,208.571939 62.7049149,208.38851 62.8022461,208.216309 C62.8995773,208.044107 63.038085,207.92806 63.2177734,207.868164 L68.2490234,206.453125 C68.4436859,206.408203 68.627115,206.434407 68.7993164,206.531738 C68.9715178,206.629069 69.0875648,206.775064 69.1474609,206.969727 C69.192383,207.149415 69.1661789,207.325357 69.0688477,207.497559 C68.9715164,207.66976 68.8330087,207.785807 68.6533203,207.845703 L63.6220703,209.260742 C63.5921222,209.275716 63.5584312,209.283203 63.5209961,209.283203 L63.4199219,209.283203 Z M57.8720703,199.243164 C58.0517587,199.30306 58.1902664,199.419107 58.2875977,199.591309 C58.3849289,199.76351 58.411133,199.946939 58.3662109,200.141602 C58.3212888,200.306316 58.231446,200.433593 58.0966797,200.523438 C57.9619134,200.613282 57.8196622,200.658203 57.6699219,200.658203 L57.5688477,200.658203 C57.5314126,200.658203 57.4977215,200.650716 57.4677734,200.635742 L52.4365234,199.220703 C52.256835,199.160807 52.1183273,199.04476 52.0209961,198.872559 C51.9236649,198.700357 51.8974607,198.524415 51.9423828,198.344727 C52.0022789,198.150064 52.118326,198.004069 52.2905273,197.906738 C52.4627287,197.809407 52.6461579,197.783203 52.8408203,197.828125 L57.8720703,199.243164 Z M57.8720703,203.555664 C58.0517587,203.61556 58.1902664,203.731607 58.2875977,203.903809 C58.3849289,204.07601 58.411133,204.259439 58.3662109,204.454102 C58.3212888,204.618816 58.231446,204.746093 58.0966797,204.835938 C57.9619134,204.925782 57.8196622,204.970703 57.6699219,204.970703 L57.5688477,204.970703 C57.5314126,204.970703 57.4977215,204.963216 57.4677734,204.948242 L52.4365234,203.533203 C52.256835,203.473307 52.1183273,203.35726 52.0209961,203.185059 C51.9236649,203.012857 51.8974607,202.836915 51.9423828,202.657227 C52.0022789,202.462564 52.118326,202.316569 52.2905273,202.219238 C52.4627287,202.121907 52.6461579,202.095703 52.8408203,202.140625 L57.8720703,203.555664 Z M57.8720703,207.868164 C58.0517587,207.92806 58.1902664,208.044107 58.2875977,208.216309 C58.3849289,208.38851 58.411133,208.571939 58.3662109,208.766602 C58.3212888,208.931316 58.231446,209.058593 58.0966797,209.148438 C57.9619134,209.238282 57.8196622,209.283203 57.6699219,209.283203 L57.5688477,209.283203 C57.5314126,209.283203 57.4977215,209.275716 57.4677734,209.260742 L52.4365234,207.845703 C52.256835,207.785807 52.1183273,207.66976 52.0209961,207.497559 C51.9236649,207.325357 51.8974607,207.149415 51.9423828,206.969727 C52.0022789,206.775064 52.118326,206.629069 52.2905273,206.531738 C52.4627287,206.434407 52.6461579,206.408203 52.8408203,206.453125 L57.8720703,207.868164 Z" transform="translate(-49 -192)"/>
</svg>
