<svg xmlns="http://www.w3.org/2000/svg" width="23" height="24" viewBox="0 0 23 24">
  <path fill="#0082C7" fill-rule="evenodd" d="M51.6279297,277.65625 L54.2783203,280.28418 C54.4130866,280.43392 54.4804688,280.606119 54.4804688,280.800781 C54.4804688,280.995444 54.4130866,281.167642 54.2783203,281.317383 C54.2034501,281.377279 54.1210942,281.425944 54.03125,281.463379 C53.9414058,281.500814 53.8515629,281.519531 53.7617188,281.519531 C53.6718746,281.519531 53.5820317,281.500814 53.4921875,281.463379 C53.4023433,281.425944 53.3199874,281.377279 53.2451172,281.317383 L49,276.959961 L53.2451172,272.602539 C53.3948575,272.452799 53.5670563,272.37793 53.7617188,272.37793 C53.9563812,272.37793 54.12858,272.452799 54.2783203,272.602539 C54.4130866,272.737305 54.4804688,272.905761 54.4804688,273.10791 C54.4804688,273.31006 54.4130866,273.478515 54.2783203,273.613281 L51.6728516,276.21875 L64.0712891,276.21875 C64.2809255,276.21875 64.4531243,276.286132 64.5878906,276.420898 C64.7226569,276.555665 64.7900391,276.727864 64.7900391,276.9375 C64.7900391,277.132162 64.7226569,277.300618 64.5878906,277.442871 C64.4531243,277.585124 64.2809255,277.65625 64.0712891,277.65625 L51.6279297,277.65625 Z M70.5625,265.4375 C70.9518249,265.4375 71.2887356,265.576008 71.5732422,265.853027 C71.8577488,266.130047 72,266.470701 72,266.875 L72,287 C72,287.404299 71.8577488,287.744953 71.5732422,288.021973 C71.2887356,288.298992 70.9518249,288.4375 70.5625,288.4375 L58.34375,288.4375 C57.9394511,288.4375 57.598797,288.298992 57.3217773,288.021973 C57.0447577,287.744953 56.90625,287.404299 56.90625,287 L56.90625,280.508789 L58.34375,280.508789 L58.34375,286.124023 C58.34375,286.363608 58.4298494,286.569498 58.6020508,286.741699 C58.7742522,286.913901 58.980142,287 59.2197266,287 L69.6865234,287 C69.926108,287 70.1282544,286.913901 70.2929688,286.741699 C70.4576831,286.569498 70.5400391,286.363608 70.5400391,286.124023 L70.5175781,267.750977 C70.5175781,267.511392 70.4352222,267.305502 70.2705078,267.133301 C70.1057934,266.961099 69.903647,266.875 69.6640625,266.875 L59.2197266,266.875 C58.980142,266.875 58.7742522,266.961099 58.6020508,267.133301 C58.4298494,267.305502 58.34375,267.511392 58.34375,267.750977 L58.34375,273.34375 L56.90625,273.34375 L56.90625,266.875 C56.90625,266.470701 57.0447577,266.130047 57.3217773,265.853027 C57.598797,265.576008 57.9394511,265.4375 58.34375,265.4375 L70.5625,265.4375 Z" transform="translate(-49 -265)"/>
</svg>
