<?xml version="1.0" encoding="utf-8"?>
<!-- Generator: Adobe Illustrator 22.1.0, SVG Export Plug-In . SVG Version: 6.00 Build 0)  -->
<svg version="1.1" id="Layer_1" xmlns="http://www.w3.org/2000/svg" xmlns:xlink="http://www.w3.org/1999/xlink" x="0px" y="0px"
	 viewBox="0 0 298 105" style="enable-background:new 0 0 298 105;" xml:space="preserve">
<style type="text/css">
	.st0{fill:#00709D;}
	.st1{fill:#5ECBF1;}
</style>
<g>
	<g>
		<path class="st0" d="M33.7,22.7c-8.5,0-15.7,3.1-21.3,9.3c-5.1,5.6-7.7,12.3-7.7,20c0,7.7,2.7,14.6,8.1,20.3
			c5.4,5.8,12.4,8.7,20.9,8.7c8.4,0,15.4-2.9,20.8-8.7c5.4-5.8,8.1-12.6,8.1-20.3c0-7.7-2.6-14.4-7.7-20
			C49.3,25.8,42.2,22.7,33.7,22.7z M54,52.2c0,3.8-0.9,7.3-2.7,10.6c-1.8,3.2-4.3,5.8-7.4,7.5c-3.1,1.8-6.5,2.7-10.2,2.7
			s-7.1-0.9-10.2-2.7c-3.1-1.8-5.6-4.3-7.4-7.5c-1.8-3.3-2.7-6.8-2.7-10.6c0-5.8,2-10.9,6-15c4-4.1,8.8-6.2,14.3-6.2
			c5.5,0,10.3,2.1,14.3,6.2C52,41.3,54,46.3,54,52.2z"/>
		<path class="st0" d="M95.8,22.7c-4.5,0-8.7,1-12.3,2.9c-3.1,1.6-5.9,4-8.4,7v-8.5h-8.4v75.4h8.4V71.6c2.6,2.9,5.6,5.1,8.7,6.7
			c3.7,1.8,7.8,2.8,12.2,2.8c7.8,0,14.6-2.9,20.2-8.6c5.5-5.7,8.3-12.7,8.3-20.8c0-8-2.8-14.9-8.4-20.5
			C110.5,25.6,103.7,22.7,95.8,22.7z M116,52c0,3.7-1,7.2-2.8,10.6c-1.9,3.3-4.4,6-7.6,7.9c-3.2,1.9-6.6,2.8-10.2,2.8
			c-3.7,0-7.2-0.9-10.5-2.8c-3.3-1.8-5.9-4.4-7.6-7.5c-1.8-3.2-2.7-6.8-2.7-10.7c0-6,2-11.1,6-15.2c4-4,8.9-6.1,14.7-6.1
			c3.7,0,7.2,0.9,10.4,2.8c3.1,1.8,5.7,4.4,7.6,7.7C115.1,44.7,116,48.3,116,52z"/>
		<polygon class="st0" points="142.3,4 133.8,4 133.8,24.1 124.3,24.1 124.3,31.6 133.8,31.6 133.8,79.7 142.3,79.7 142.3,31.6 
			153.3,31.6 153.3,24.1 142.3,24.1 		"/>
		<rect x="157.9" y="24.1" class="st0" width="8.5" height="55.6"/>
		<path class="st0" d="M221.6,32.2c-2.9-3.1-5.9-5.5-9-7c-3.6-1.7-7.5-2.6-11.6-2.6c-5,0-9.8,1.3-14.3,3.9
			c-4.5,2.6-8.1,6.1-10.6,10.5c-2.5,4.4-3.8,9.3-3.8,14.4c0,5.1,1.2,9.9,3.7,14.1c2.4,4.3,6,7.7,10.4,10.2c4.5,2.5,9.3,3.8,14.4,3.8
			c4.3,0,8.5-0.9,12.3-2.7c3.2-1.5,6.1-3.6,8.5-6.3v0.7c0,5.8-0.7,10.1-2,12.6c-1.3,2.5-3.6,4.7-6.7,6.4c-3.1,1.7-7.1,2.6-11.6,2.6
			c-4.7,0-8.6-0.8-11.7-2.5c-3.1-1.6-5.7-4.2-7.7-7.7l-0.2-0.4h-9.2l0.5,1.1c2,4.3,4.2,7.6,6.6,9.9c2.4,2.3,5.5,4.1,9.3,5.4
			c3.8,1.3,8,2,12.8,2c6.4,0,12-1.4,16.6-4.1c4.6-2.8,7.9-6.8,9.8-11.9c1.4-3.6,2-9.3,2-16.9V24.1h-8.5V32.2z M219.4,40.9
			c1.7,3.1,2.6,6.6,2.6,10.5c0,6-1.9,10.9-5.6,14.6c-3.7,3.7-8.7,5.6-14.9,5.6c-6.1,0-11.1-1.9-14.9-5.6c-3.8-3.7-5.7-8.5-5.7-14.2
			c0-3.8,0.9-7.3,2.8-10.5c1.8-3.2,4.4-5.8,7.7-7.6c3.2-1.8,6.8-2.8,10.6-2.8c3.6,0,7.1,0.9,10.2,2.7
			C215.2,35.4,217.7,37.8,219.4,40.9z"/>
		<path class="st0" d="M284.8,32c-5.6-6.2-12.7-9.3-21.2-9.3c-8.5,0-15.7,3.1-21.3,9.3c-5.1,5.6-7.7,12.3-7.7,20
			c0,7.7,2.7,14.6,8.1,20.3c5.4,5.8,12.4,8.7,20.9,8.7c8.4,0,15.4-2.9,20.8-8.7c5.4-5.8,8.1-12.6,8.1-20.3
			C292.5,44.3,289.9,37.6,284.8,32z M283.9,52.2c0,3.8-0.9,7.3-2.7,10.6c-1.8,3.2-4.3,5.8-7.4,7.5c-3.1,1.8-6.5,2.7-10.2,2.7
			s-7.1-0.9-10.2-2.7c-3.1-1.8-5.6-4.3-7.4-7.5c-1.8-3.3-2.7-6.8-2.7-10.6c0-5.8,2-10.9,6-15c4-4.1,8.8-6.2,14.3-6.2
			c5.5,0,10.3,2.1,14.3,6.2C281.9,41.3,283.9,46.3,283.9,52.2z"/>
	</g>
	<rect x="221.6" y="4.9" class="st1" width="8.3" height="8.3"/>
</g>
</svg>
