<?xml version="1.0" encoding="utf-8"?>
<!-- Generator: Adobe Illustrator 23.0.6, SVG Export Plug-In . SVG Version: 6.00 Build 0)  -->
<svg version="1.1" id="Layer_1" xmlns="http://www.w3.org/2000/svg" xmlns:xlink="http://www.w3.org/1999/xlink" x="0px" y="0px"
	 width="900px" height="687px" viewBox="0 0 900 687" style="enable-background:new 0 0 900 687;" xml:space="preserve">
<style type="text/css">
	.st0{fill:#635DC2;}
	.st1{fill:#4A9FDC;}
</style>
<g>
	<g>
		<path class="st0" d="M395.9,312.2c-0.6-2.3-1.4-4.5-2.3-6.7c-0.9-2.2-2-4.3-3.3-6.2c-1.3-1.9-2.8-3.4-4.5-4.5
			c1-0.2,2.2-0.3,3.6-0.5c1.4-0.2,2.6-0.5,3.8-0.9c1.2-0.4,2.1-1.1,2.8-1.9c0.7-0.8,1-2,0.7-3.5c-0.1-0.6-0.4-1-0.8-1.1
			c-0.5-0.1-0.9-0.1-1.4,0c-0.6,0.1-1.2,0.3-1.8,0.5c-0.6,0.2-1.2,0.5-1.8,0.7c-0.9,0.3-1.9,0.6-2.8,0.8c-0.9,0.2-1.9,0.4-3,0.6
			c-0.7,0.1-1.6,0.2-2.7,0.4c-1.1,0.1-2.2,0.2-3.3,0.3c-1.1,0.1-2.2,0.2-3.3,0.2c-1.1,0-1.9-0.1-2.6-0.2c0-8.6,0.7-17,2-25.4
			c1.3-8.4,3-16.7,5.1-24.9c0.7-2.5,1.4-4.9,2.2-7.4c0.8-2.4,1.5-4.9,2.2-7.4c0.2-0.7,0.4-1.4,0.5-2.1c0.1-0.7,0.1-1.5-0.1-2.3
			c-0.2-1-0.5-1.8-1.1-2.4c-0.5-0.6-1.4-0.9-2.5-0.7c-0.7,0.1-1.5,0.4-2.3,0.7c-0.8,0.4-1.7,0.8-2.5,1.4c-0.8,0.5-1.6,1.1-2.2,1.8
			c-0.7,0.6-1.2,1.2-1.6,1.8c-0.5,0.8-0.9,1.7-1.2,2.6c-0.3,0.9-0.5,1.9-0.8,2.8c-3.5,16.4-5.5,32.7-6,48.9
			c-0.3,9.2,0,18.4,0.7,27.8c-0.1,0.2-0.3,0.3-0.4,0.5c-0.4,0.8-0.8,1.4-1.1,2.1c-0.5,1.2-1.4,2.9-2.6,5c-1.2,2.1-2.6,4.2-4,6.3
			c-1.5,2.1-3,4-4.5,5.6c-1.6,1.6-3,2.6-4.4,2.8c-1.1,0.2-1.9-0.3-2.2-1.3c-0.4-1-0.6-2-0.7-2.8c-0.5-2.9-0.7-5.7-0.6-8.6
			c0-2.9,0.1-5.7,0.3-8.6c0.1-1.8,0.1-3.4-0.1-4.7c-0.4-2.6-1.3-4.6-2.7-6c-1.4-1.4-2.9-2.5-4.6-3.3c-1.7-0.8-3.4-1.6-5.2-2.2
			c-1.7-0.7-3.2-1.6-4.4-2.9c-0.1-1.9-0.2-3.9-0.6-5.8c-0.1-0.6-0.3-1.5-0.5-2.5c-0.2-1-0.6-2-1.1-2.9c-0.5-0.9-1-1.8-1.6-2.4
			c-0.6-0.7-1.3-1-2.2-0.8c-1.2,0.2-2.1,0.9-2.9,2c-0.7,1.2-1.3,2.5-1.6,4c-0.4,1.5-0.6,3.1-0.6,4.6c0,1.6,0,2.8,0.2,3.8
			c0.3,1.8,0.8,3.6,1.6,5.2c0.7,1.6,1.8,3.1,3.1,4.3c0.2,4.1-0.5,8.1-2,11.9c-1.3,3.3-2.7,6.6-4.2,9.8c-0.2,0.3-0.3,0.6-0.5,1
			c-1.1,2.1-2.4,4.1-3.8,6c-1.4,2-2.9,3.7-4.4,5.3c-1.5,1.6-3,2.4-4.5,2.7c-1,0.2-1.8-0.2-2.4-1.1c-0.7-0.9-1.2-2-1.7-3.3
			c-0.4-1.3-0.8-2.5-1-3.8c-0.2-1.3-0.4-2.2-0.5-2.9c-0.3-2.1-0.5-4.3-0.6-6.7c-0.1-2.4,0-4.7,0.3-6.8c0.2-0.9,0.4-2.1,0.8-3.7
			c0.3-1.5,0.4-2.7,0.3-3.6c-0.1-0.8-0.5-1.3-1.1-1.4c-0.6-0.1-1.3-0.2-1.9-0.1c-1.1,0.2-1.9,0.7-2.4,1.5c-0.5,0.9-0.8,1.7-1.1,2.7
			c-0.3,0.9-0.7,2.2-1.2,3.9c-0.5,1.8-1.1,3.7-1.8,5.7c-0.7,2.1-1.5,4.2-2.3,6.4c-0.8,2.2-1.7,4.2-2.6,6c-0.9,1.8-1.9,3.4-2.8,4.6
			c-0.9,1.2-1.9,1.9-2.7,2.1c-0.7,0.1-1.2-0.2-1.5-0.9c-0.3-0.7-0.4-1.3-0.5-1.7c-0.7-4.5-0.5-8.9,0.7-13.1
			c1.2-4.2,3.1-8.2,5.7-11.8c1.5-2.1,3-4,4.8-5.7c1.7-1.7,3.6-3.4,5.5-5c0.3-0.2,0.5-0.4,0.8-0.7c0.2-0.2,0.3-0.5,0.2-0.9
			c-0.1-0.9-0.7-1.6-1.7-2.3c-1-0.7-1.9-0.9-2.8-0.8c-3.5,0.6-6.7,2.3-9.5,5.2c-2.8,2.9-5.2,6.3-7.2,10.2c-1.9,3.9-3.4,8-4.2,12.2
			c-0.4,2-0.7,3.8-0.8,5.5c-0.7,1.5-1.5,3.1-2.4,4.6c-1.5,2.5-3.2,4.7-5.2,6.8c-2,2-4.2,3.8-6.6,5.2c-2.4,1.4-5,2.4-7.8,2.8
			c-1.2,0.2-2.4,0.3-3.6,0.2c1.1-0.3,2-0.9,2.9-1.6c0.8-0.7,1.6-1.6,2.2-2.5c1.4-1.8,2.5-3.9,3.4-6.3c0.9-2.5,1.6-5,2.1-7.7
			c0.5-2.6,0.8-5.3,0.9-7.9c0.1-2.6,0-5-0.3-7.2c-0.3-1.6-0.7-3.2-1.2-4.7c-0.6-1.5-1.3-2.9-2.2-4c-0.9-1.1-2.1-2-3.5-2.5
			c-1.4-0.6-3-0.7-4.9-0.4c-1.9,0.3-3.8,1.2-5.6,2.7c-1.8,1.5-3.6,3.3-5.1,5.3c-1.6,2-3,4.1-4.3,6.2c-1.3,2.1-2.3,4-3.1,5.6
			c-0.1-1.4-0.1-2.8-0.1-4.2c0-1.4-0.1-2.8-0.4-4.2c-0.1-0.7-0.4-1.5-0.8-2.2c-0.5-0.8-1-1.5-1.7-2.2c-0.7-0.7-1.4-1.2-2.3-1.5
			c-0.8-0.4-1.6-0.5-2.4-0.3c-1,0.2-1.8,0.6-2.2,1.4c-0.4,0.8-0.7,1.7-0.7,2.7c-0.1,1-0.1,2,0.1,3.1c0.1,1.1,0.2,2,0.2,2.7
			c0.1,2.8,0.3,5.7,0.5,8.5c0.2,2.8,0.4,5.6,0.5,8.5c0,0.8,0.1,1.9,0.3,3.3c0.1,1.4,0.1,2.4,0,3.2c-0.7,4.5-1.5,9.4-2.3,14.7
			c-0.8,5.3-1.4,10.7-1.9,16.1c-0.5,5.5-0.7,10.8-0.7,16.1c0,5.3,0.3,10.1,1,14.6c0.2,1,0.4,2.1,0.8,3.5c0.4,1.4,0.9,2.7,1.6,3.9
			c0.7,1.2,1.5,2.2,2.5,3c1,0.8,2.2,1.1,3.6,0.8c1-0.2,1.9-0.6,2.7-1.2c0.8-0.7,1.4-1.4,2-2.3c0.6-0.9,1.1-1.9,1.4-2.9
			c0.4-1,0.7-1.9,0.8-2.8c0.8-3.4,1.4-7.5,1.5-12.5c0.2-4.9,0.2-10,0-15.2c-0.1-5.2-0.4-10.4-0.7-15.4c-0.3-5-0.6-9.4-0.9-13.1
			c1.1,1.1,2.4,2,4.1,2.5c1.6,0.5,3.4,0.9,5.2,1.1c1.9,0.2,3.7,0.2,5.5,0.1c1.8-0.1,3.4-0.3,4.9-0.5c3.5-0.6,6.7-1.6,9.5-3
			c2.8-1.5,5.3-3.3,7.6-5.5c2.2-2.2,4.2-4.7,5.9-7.4c0,0,0-0.1,0.1-0.1c0.1,0.4,0.2,0.9,0.4,1.3c0.4,1.4,1,2.7,1.7,3.9
			c0.7,1.2,1.6,2.1,2.7,2.9c1.1,0.7,2.4,1,3.8,0.7c1.6-0.3,3.1-1.1,4.5-2.6c1.4-1.5,2.8-3.1,4-5c1.2-1.9,2.3-3.9,3.3-5.8
			c0.9-2,1.7-3.6,2.3-4.9c0.1,1.4,0.5,3.2,1,5.3c0.5,2.1,1.2,4,2.2,5.9c0.9,1.8,2.1,3.4,3.5,4.6c1.4,1.2,3.1,1.6,5.1,1.3
			c2.1-0.3,4.1-1.3,6-2.8c1.9-1.5,3.7-3.3,5.3-5.4c1.6-2,3-4.2,4.3-6.4c0.5-0.9,1-1.8,1.4-2.6c1.1-1.5,2-3.2,2.8-5.1
			c0.8-1.9,1.6-3.9,2.2-6c0.7-2.1,1.2-4.1,1.7-6.1c0.4-2,0.9-4,1.2-5.8c1.8,0.3,3.6,0.9,5.2,1.9c1.7,1,2.6,2.4,3,4.4
			c0.4,2.2,0.6,4.4,0.7,6.6c0.1,2.2,0.4,4.4,0.7,6.6c0.2,1.4,0.6,3.1,1,5c0.4,1.9,1,3.6,1.9,5.2c0.8,1.6,1.9,2.9,3.2,4
			c1.3,1,2.9,1.4,4.9,1.1c1.9-0.3,3.9-1.4,6-3.3c2.1-1.9,4.1-4.1,5.9-6.6c1.8-2.5,3.5-5,5-7.6c0.5-0.8,0.9-1.5,1.3-2.2
			c0.5,4.4,1.1,8.8,1.8,13.2c0.2,1.1,0.4,2.6,0.8,4.6c0.3,1.9,0.8,4,1.3,6.1c0.5,2.2,1.2,4.3,2,6.5c0.8,2.2,1.7,4.2,2.7,5.9
			c1.1,1.7,2.2,3.1,3.6,4.1c1.3,1,2.8,1.3,4.5,1.1c3.8-0.6,6.8-2.3,8.9-5.1c2.1-2.8,3.7-6,4.6-9.7c1-3.7,1.4-7.5,1.4-11.5
			c0-4-0.3-7.4-0.7-10.3C397,316.5,396.5,314.4,395.9,312.2z M219.3,392c0,1.4-0.1,2.9-0.2,4.6c-0.1,1.6-0.3,3.1-0.6,4.4
			c-0.3,1.3-0.7,2-1.1,2.1c-0.4,0.1-0.7-0.1-0.9-0.6c-0.2-0.5-0.5-1-0.7-1.5c-0.2-0.6-0.4-1.2-0.5-1.8c-0.1-0.6-0.2-1-0.2-1.2
			c-0.5-3.1-0.8-6.9-0.9-11.3c-0.1-4.5-0.1-9,0.1-13.8c0.2-4.7,0.6-9.3,1.1-13.7c0.5-4.4,1.1-8.2,1.8-11.2
			c0.7,6.9,1.2,13.8,1.6,20.7c0.4,6.9,0.6,13.8,0.5,20.8C219.3,389.6,219.3,390.5,219.3,392z M238.2,336c-1.8,2.6-3.9,4.2-6.2,4.5
			c-1.7,0.3-2.9,0.2-3.8-0.3c-0.8-0.4-1.6-0.6-2.3-0.5c-0.3,0.1-0.6,0.2-0.8,0.5c0-0.6-0.1-1.8-0.2-3.3c-0.1-1.6-0.2-3.2-0.3-4.9
			c-0.1-1.7-0.1-3.3-0.1-4.8c0-1.5,0.1-2.4,0.3-2.9c0.4-1.3,1.3-3.1,2.4-5.4c1.2-2.3,2.5-4.6,4-6.8c1.5-2.2,3-4.2,4.7-6
			c1.6-1.8,3.1-2.8,4.5-3c1.5-0.2,2.6,0.3,3.2,1.6c0.7,1.3,1.1,2.5,1.3,3.7c0.3,2,0.3,4.7-0.1,8.1c-0.4,3.4-1.1,6.9-2.2,10.3
			C241.5,330.3,240,333.3,238.2,336z M389.9,332.8c0,1.1-0.1,2.5-0.3,4.5c-0.2,1.9-0.6,3.8-1.1,5.7c-0.5,1.9-1.2,3.5-2.1,5
			c-0.9,1.4-2.1,2.3-3.5,2.5c-1.1,0.2-2.1-0.5-3.1-1.9c-0.9-1.4-1.7-3.2-2.4-5.2c-0.7-2-1.2-4-1.6-5.9c-0.4-1.9-0.7-3.3-0.8-4.2
			c-0.9-5.6-1.5-11.3-1.7-17c-0.2-5.7-0.4-11.3-0.4-17.1c2.5,0.8,4.7,2.1,6.5,3.7c1.9,1.7,3.4,3.6,4.8,5.7c1.3,2.2,2.4,4.5,3.2,6.9
			c0.8,2.5,1.5,4.9,1.8,7.3l0.1,0.4c0.3,1.6,0.4,3.2,0.6,4.7C389.9,329.6,390,331.2,389.9,332.8z"/>
		<path class="st0" d="M462.1,260.5c0.9,0.8,1.9,1.1,3.2,0.9c1.6-0.3,2.8-1.1,3.7-2.6c0.9-1.5,1.2-3,1-4.6c-0.2-1.2-0.7-2.2-1.6-3
			c-0.9-0.8-2-1.1-3.3-0.9c-1.6,0.3-2.8,1.1-3.7,2.7c-0.9,1.5-1.2,3-0.9,4.5C460.8,258.7,461.3,259.7,462.1,260.5z"/>
		<path class="st0" d="M530.1,277.4c-0.1-0.5-0.3-0.9-0.7-1.2c-0.4-0.3-0.8-0.4-1.3-0.3c-0.6,0.1-1.2,0.5-1.6,1.2
			c-0.5,0.7-0.8,1.4-1,2c-0.6,1.6-1.5,3.5-2.7,5.9c-1.1,2.3-2.4,4.6-3.9,6.8c-1.5,2.2-3.1,4.1-4.8,5.8c-1.7,1.7-3.5,2.7-5.3,3
			c-1.6,0.3-3-0.5-4.3-2.2c-1.3-1.8-2.4-3.9-3.3-6.3c-0.9-2.5-1.7-4.9-2.3-7.4c-0.6-2.5-1-4.3-1.2-5.5c0-0.3-0.1-0.8-0.2-1.3
			c-0.1-0.6-0.1-1,0-1.4c0.1-0.4,0.3-0.9,0.6-1.4c0.3-0.5,0.6-1,0.8-1.4c0.4-0.9,0.9-1.7,1.3-2.6c0.4-0.8,0.8-1.7,1.2-2.7
			c1.5-3.6,2.8-7.4,4.1-11.3c1.2-4,2-7.9,2.4-11.7c0.5-0.2,1.2-0.4,2.1-0.8c0.9-0.4,1.9-0.8,2.9-1.2c1-0.4,1.9-0.9,2.7-1.3
			c0.8-0.4,1.4-0.7,1.7-0.9c0.4-0.4,0.8-0.8,1-1.1c0.2-0.3,0.3-0.8,0.2-1.4c-0.2-1-0.8-1.5-1.9-1.3c-1.4,0.2-2.7,0.6-4,1
			c-1.3,0.5-2.6,0.9-4,1.2c0.4-3.2,0.6-6.4,0.5-9.6c-0.1-3.2-0.3-6.4-0.8-9.5c-0.1-0.9-0.3-1.9-0.6-3.1c-0.3-1.2-0.7-2.4-1.2-3.4
			c-0.5-1.1-1.2-1.9-2.1-2.6c-0.8-0.7-1.9-0.9-3.2-0.7c-2.8,0.4-5.1,2.1-7,5c-1.9,2.9-3.4,6.3-4.6,10.1c-1.2,3.8-2.1,7.6-2.7,11.4
			c-0.6,3.8-1.1,6.8-1.4,9.1c-1.3,0.3-2.5,0.8-3.9,1.5c-1.3,0.7-1.8,1.8-1.6,3.4c0.3,1.9,1.4,2.7,3.3,2.4c0.9-0.1,1.7-0.4,2.4-0.8
			c-0.2,3.9-0.1,7.9,0.2,11.9c0.3,4,0.8,7.9,1.4,11.8c0.2,1.5,0.6,3.4,1.1,5.6c0.2,0.7,0.3,1.4,0.5,2.1c-0.6,1.3-1.4,3-2.4,5.1
			c-1.1,2.4-2.4,4.7-3.9,7c-1.5,2.3-3,4.3-4.7,6.1c-1.6,1.8-3.2,2.8-4.8,3c-1,0.2-1.9-0.1-2.6-0.9c-0.7-0.8-1.3-1.8-1.7-2.9
			c-0.5-1.1-0.8-2.3-1-3.5c-0.2-1.2-0.4-2.1-0.5-2.9c-0.6-3.7-0.8-7.2-0.6-10.8c0.1-0.9,0.3-2,0.5-3.2c0.2-1.2,0.4-2.4,0.6-3.6
			c0.2-1.2,0.4-2.4,0.5-3.5c0.1-1.1,0.1-2.1,0-2.9c-0.3-1.8-1.3-2.5-3.2-2.2c-2.5,0.4-4.3,1.4-5.3,3.1c-1,1.7-1.7,3.6-2.1,5.9
			c-0.3,2.2-0.5,4.7-0.6,7.5c-0.1,1.7,0,3.3,0.1,4.7c0,0,0,0,0,0c-0.4,0.8-0.7,1.5-1,2.2c-0.5,1.2-1.4,2.9-2.5,4.9
			c-1.1,2.1-2.4,4.1-3.8,6c-1.4,2-2.9,3.7-4.4,5.3c-1.5,1.6-3,2.4-4.5,2.7c-1,0.2-1.8-0.2-2.4-1.1c-0.7-0.9-1.2-2-1.7-3.3
			c-0.4-1.3-0.8-2.5-1-3.8c-0.2-1.3-0.4-2.2-0.5-2.9c-0.3-2.1-0.5-4.3-0.6-6.7c-0.1-2.4,0-4.7,0.3-6.8c0.2-0.9,0.4-2.1,0.8-3.7
			c0.3-1.5,0.4-2.7,0.3-3.6c-0.1-0.8-0.5-1.3-1.1-1.4c-0.6-0.1-1.3-0.2-1.9-0.1c-1.1,0.2-1.9,0.7-2.4,1.5c-0.5,0.9-0.8,1.7-1.1,2.7
			c-0.3,0.9-0.7,2.2-1.2,3.9c-0.5,1.8-1.1,3.7-1.8,5.7c-0.7,2.1-1.5,4.2-2.3,6.4c-0.8,2.2-1.7,4.2-2.6,6c-0.9,1.8-1.9,3.4-2.8,4.6
			c-0.9,1.2-1.8,1.9-2.7,2.1c-0.7,0.1-1.2-0.2-1.5-0.9c-0.3-0.7-0.4-1.3-0.5-1.7c-0.7-4.5-0.5-8.9,0.7-13.1
			c1.2-4.2,3.1-8.2,5.7-11.8c1.5-2.1,3.1-4,4.8-5.7c1.7-1.7,3.6-3.4,5.5-5c0.3-0.2,0.5-0.4,0.8-0.7c0.2-0.2,0.3-0.5,0.2-0.9
			c-0.1-0.9-0.7-1.6-1.7-2.3c-1-0.7-1.9-0.9-2.8-0.8c-3.5,0.6-6.7,2.3-9.5,5.2c-2.8,2.9-5.2,6.3-7.2,10.2c-1.9,3.9-3.4,8-4.2,12.2
			c-0.9,4.2-1.1,7.9-0.6,11c0.2,1.1,0.5,2.4,0.9,3.8c0.4,1.4,1,2.7,1.7,3.9c0.7,1.2,1.6,2.1,2.7,2.9c1.1,0.7,2.4,1,3.8,0.7
			c1.6-0.3,3.1-1.1,4.5-2.6c1.4-1.5,2.8-3.1,4-5c1.2-1.9,2.3-3.9,3.3-5.8c1-2,1.7-3.6,2.3-5c0.1,1.4,0.5,3.2,1,5.3
			c0.5,2.1,1.2,4,2.2,5.9c0.9,1.8,2.1,3.4,3.5,4.6c1.4,1.2,3.1,1.6,5.1,1.3c2.1-0.3,4.1-1.3,6-2.8c1.9-1.5,3.7-3.3,5.3-5.4
			c1.6-2,3-4.2,4.3-6.4c0.9-1.5,1.6-2.9,2.3-4.1c0.1,0.4,0.2,0.8,0.3,1.2c0.6,2.3,1.5,4.5,2.6,6.4c1.1,2,2.5,3.6,4.1,4.8
			c1.6,1.3,3.6,1.7,6,1.3c2.1-0.3,4.2-1.4,6.2-3.1c2-1.7,3.9-3.8,5.7-6.1c1.8-2.3,3.4-4.7,4.8-7.2c1-1.8,1.9-3.3,2.6-4.7
			c0.7,2,1.5,3.9,2.4,5.8c1.1,2.4,2.4,4.6,3.8,6.4c1.4,1.9,3,3.3,4.7,4.3c1.8,1,3.7,1.4,5.7,1c2.4-0.4,4.7-1.5,6.9-3.5
			c2.2-1.9,4.3-4.2,6.1-6.8c1.9-2.6,3.5-5.3,5-8.1c1.4-2.8,2.5-5.2,3.4-7.3c0.4-0.9,0.7-1.7,0.9-2.6
			C530.2,279.2,530.2,278.3,530.1,277.4z M494.3,237.7c0.3-2.9,0.8-5.9,1.5-9c0.7-3.1,1.5-5.8,2.5-8.2c1-2.4,2.2-3.7,3.5-3.9
			c0.3,0,0.6,0.1,0.8,0.4c0.2,0.3,0.4,0.6,0.5,1c0.1,0.4,0.2,0.8,0.3,1.2c0.1,0.4,0.1,0.7,0.1,0.8c0.5,3.2,0.7,6.7,0.7,10.5
			c0,3.8-0.3,7.3-0.8,10.5c-1.5,0.7-3.1,1.2-4.8,1.6c-1.7,0.4-3.3,0.8-4.8,1.3C493.8,242.6,493.9,240.6,494.3,237.7z M495.1,269.8
			c-0.3-3.2-0.6-6.4-0.9-9.7c-0.3-3.2-0.4-6.5-0.1-9.7c1.3-0.6,2.6-1.1,4-1.4c1.4-0.3,2.8-0.8,4.2-1.3c-0.2,1.5-0.5,3.2-1,5.2
			c-0.5,2-1.1,4-1.8,6.1c-0.7,2.1-1.4,4.1-2.2,6C496.6,266.9,495.8,268.5,495.1,269.8z"/>
	</g>
	<path class="st1" d="M595,275c0,12.7-10.3,23-23,23c-12.7,0-23-10.3-23-23c0-12.7,10.3-23,23-23C584.7,252,595,262.3,595,275z"/>
	<path class="st0" d="M623.2,240.6c0,16.5-13.4,29.9-29.9,29.9c-16.5,0-29.9-13.4-29.9-29.9c0-16.5,13.4-29.9,29.9-29.9
		C609.8,210.7,623.2,224.1,623.2,240.6z"/>
	<g>
		<path class="st1" d="M413.4,346.9c0.4,0.3,0.8,0.4,1.3,0.3c0.6-0.1,1-0.4,1.4-0.8c0.4-0.5,0.7-0.9,1.1-1.4
			c1.3-1.8,2.4-3.7,3.5-5.5c1.1-1.8,2.2-3.7,3.2-5.6c0.7-1.2,1.4-2.4,2.1-3.5c0.7-1.2,1.3-2.4,1.9-3.6c0.4-1,0.6-1.8,0.4-2.6
			c-0.2-1.1-0.7-2-1.5-2.6c-0.8-0.6-1.8-0.8-2.9-0.6c-1.4,0.2-2.5,1-3.3,2.4c-0.5,1-0.9,2.1-1.3,3.3c-0.4,1.2-0.8,2.3-1.2,3.4
			c-0.8,2.2-1.6,4.5-2.5,6.6c-0.9,2.2-1.7,4.4-2.5,6.6c-0.1,0.4-0.2,0.9-0.3,1.3c-0.1,0.4-0.2,0.8-0.1,1.2
			C412.8,346.2,413,346.5,413.4,346.9z"/>
		<path class="st1" d="M585.7,351.6c-0.6-5.2-1.2-9.4-1.8-12.9c-0.2-1.4-0.8-2.4-1.7-3.2c-0.9-0.7-2.1-1-3.5-0.8
			c-1.7,0.3-3,1.2-3.9,2.8c-1,1.6-1.7,3.1-2.1,4.6c-0.4,1.7-1.3,4-2.6,7c-1.4,3-3,6-4.8,8.9c-1.8,2.9-3.8,5.6-5.9,7.8
			c-2.1,2.3-4.1,3.5-5.9,3.8c-1.4,0.2-2.5-0.1-3.1-0.9c-0.7-0.8-1.1-1.9-1.3-3.1c-0.3-1.7-0.2-3.5,0.1-5.5c0.4-2,0.9-4,1.6-6
			c0.7-2,1.6-3.9,2.5-5.7c1-1.8,1.9-3.4,2.8-4.8c2-2.9,4.5-5.6,7.4-8c2.9-2.4,6.2-3.9,10-4.5c1.1-0.2,2.2-0.2,3.2,0
			c1.1,0.2,2,0.4,2.9,0.7c0.9,0.3,1.6,0.5,2.3,0.8c0.7,0.3,1.2,0.3,1.6,0.3c0.3,0,0.6-0.2,0.8-0.4c0.2-0.2,0.3-0.6,0.3-1
			c-0.2-1.1-0.9-2-2-2.7c-1.2-0.7-2.5-1.1-4-1.4c-1.5-0.3-3-0.4-4.5-0.5c-1.5,0-2.6,0-3.5,0.1c-4.3,0.7-8.2,2.2-11.6,4.4
			c-3.5,2.2-6.5,5.1-9,8.6c-1.3,1.8-2.4,3.7-3.4,5.8c-1,2.1-1.9,4.3-2.6,6.7c-0.6,2.2-1.1,4.4-1.3,6.6c-0.3,0.7-0.7,1.4-0.9,2.1
			c-0.5,1.2-1.4,2.9-2.5,4.9c-1.1,2.1-2.4,4.1-3.8,6.1c-1.4,2-2.9,3.8-4.4,5.3c-1.5,1.6-3,2.5-4.4,2.7c-1,0.2-1.8-0.2-2.4-1.1
			c-0.7-0.9-1.2-2-1.7-3.3c-0.5-1.3-0.8-2.5-1.1-3.8c-0.2-1.3-0.4-2.2-0.5-2.9c-0.3-2.1-0.6-4.3-0.7-6.7c-0.1-2.4,0-4.7,0.3-6.8
			c0.2-0.9,0.4-2.1,0.7-3.7c0.3-1.5,0.4-2.7,0.3-3.6c-0.1-0.8-0.5-1.3-1.1-1.4c-0.6-0.1-1.3-0.2-1.9,0c-1.1,0.2-1.9,0.7-2.4,1.5
			c-0.5,0.9-0.8,1.8-1.1,2.7c-0.3,0.9-0.6,2.2-1.1,3.9c-0.5,1.8-1.1,3.7-1.8,5.7c-0.7,2.1-1.5,4.2-2.3,6.4c-0.8,2.2-1.7,4.2-2.6,6.1
			c-0.9,1.8-1.9,3.4-2.8,4.6c-0.9,1.3-1.8,2-2.7,2.1c-0.7,0.1-1.2-0.2-1.5-0.9c-0.3-0.7-0.5-1.3-0.5-1.7c-0.7-4.5-0.5-8.9,0.7-13.1
			c1.2-4.2,3.1-8.2,5.6-11.9c1.4-2.1,3-4,4.7-5.7c1.7-1.7,3.5-3.4,5.5-5c0.3-0.2,0.5-0.4,0.7-0.7c0.2-0.2,0.3-0.6,0.2-1
			c-0.1-0.9-0.7-1.6-1.7-2.3c-1-0.7-1.9-0.9-2.8-0.8c-3.5,0.6-6.7,2.3-9.5,5.2c-2.8,2.9-5.2,6.3-7.1,10.3c-1.9,3.9-3.3,8-4.2,12.2
			c-0.4,2-0.6,3.8-0.7,5.5c-0.8,1.8-1.8,3.5-2.9,5.3c-1.2,2-2.6,3.7-4,5.2c-1.4,1.5-2.9,2.4-4.5,2.6c-1,0.2-1.7,0-2.3-0.4
			c-0.6-0.4-1.1-0.9-1.4-1.6c-0.4-0.7-0.6-1.4-0.8-2.2c-0.2-0.8-0.3-1.6-0.4-2.3c-0.5-2.8-0.8-5.6-1.1-8.4c-0.3-2.8-0.7-5.6-1.1-8.4
			c-0.1-0.9-0.4-1.9-0.7-3.2c-0.3-1.3-0.7-2.5-1.3-3.7c-0.6-1.2-1.3-2.2-2.1-3c-0.9-0.8-1.9-1-3.1-0.8c-1.5,0.2-3.1,1.4-4.9,3.5
			c-1.7,2.1-3.4,4.4-5,7.1c-1.6,2.6-3.1,5.3-4.4,7.9c-1.3,2.7-2.3,4.7-3,6.1c-0.1-2.4,0-4.7,0.1-7.1c0.1-2.4,0.4-4.8,0.9-7.1
			c0.4-2,0.8-4.2,1.1-6.6c0.3-2.4,0.3-4.6,0-6.7c-0.2-1.3-0.6-2.2-1.3-2.9c-0.6-0.6-1.6-0.8-3-0.6c-1.5,0.2-2.9,1.1-4.1,2.5
			c-1.2,1.4-1.8,2.9-1.9,4.4c-0.1,1.9-0.2,3.8-0.2,5.8c0,2-0.1,3.9-0.2,5.8c-0.2,4.5-0.4,9.2-0.5,14c-0.1,0.2-0.2,0.4-0.2,0.5
			c-0.8,2.2-1.8,4.4-3.1,6.6c-1.3,2.2-2.8,4.3-4.5,6.2c-1.7,1.9-3.6,3.6-5.7,4.9c-2.1,1.4-4.3,2.2-6.8,2.6c-2.3,0.4-4.2,0.1-5.6-0.8
			c-1-0.7-1.8-1.6-2.3-2.7c-0.5-1.1-0.9-2.3-1.1-3.6c-0.4-2.1-0.5-4-0.3-5.5c1.8-1,3.6-2.6,5.5-4.8c1.9-2.1,3.5-4.5,5-7.1
			c1.5-2.6,2.6-5.1,3.4-7.7c0.8-2.6,1-4.8,0.7-6.7c-0.3-2.1-1.2-3.7-2.6-4.8c-1.4-1.2-3.1-1.6-5.3-1.2c-1.7,0.3-3.4,0.9-4.8,2
			c-1.5,1-2.8,2.3-3.9,3.9c-1.6,2.1-3,4.5-4,7.3c-1.1,2.8-1.9,5.6-2.5,8.4c-0.6,2.8-1,5.6-1.1,8.3c-0.1,1.2-0.1,2.4,0,3.5
			c0,0.1-0.1,0.1-0.1,0.2c-0.5,0.9-0.9,1.6-1.2,2.2c-0.6,1.2-1.5,2.7-2.7,4.5c-1.2,1.9-2.5,3.7-3.9,5.5c-1.4,1.8-2.9,3.3-4.4,4.7
			c-1.5,1.4-3,2.1-4.3,2.4c-0.8,0.1-1.5,0-2-0.4c-0.5-0.4-0.9-0.9-1.2-1.5c-0.3-0.6-0.5-1.3-0.7-2c-0.2-0.7-0.3-1.4-0.4-2
			c-0.8-4.6-1.2-9.2-1.4-13.9c-0.2-4.7-0.7-9.3-1.4-13.9c-0.2-1.1-0.5-2.2-1-3.3c-0.5-1.1-1.1-2.1-1.8-2.9c-0.8-0.9-1.7-1.5-2.7-2
			c-1.1-0.5-2.2-0.6-3.5-0.4c-1.8,0.3-3.5,1.2-5,2.7c-1.5,1.5-2.9,3.2-4.1,5.1c-1.2,1.9-2.3,3.9-3.2,5.9c-1,2-1.8,3.8-2.6,5.3
			c-1.2,2.6-2.4,5.1-3.7,7.6c-1.3,2.5-2.4,5.1-3.4,7.7c-0.1,0.3-0.3,0.7-0.6,1.4c-0.3,0.7-0.5,1-0.7,1c-0.2,0-0.3-0.1-0.4-0.3
			c-0.1-0.2-0.2-0.4-0.2-0.5c-0.5-1.1-0.9-2.3-1.1-3.6c-0.2-1.4-0.4-2.6-0.6-3.8c-0.4-2.3-0.7-4.6-1-6.9c-0.3-2.3-0.6-4.6-1-6.9
			c-0.1-0.8-0.3-1.7-0.6-2.8c-0.3-1.1-0.7-2.1-1.2-3.1c-0.5-1-1.2-1.8-1.9-2.4c-0.8-0.6-1.7-0.8-2.8-0.6c-1.6,0.3-3.2,1.4-4.8,3.3
			c-1.6,1.9-3.2,4.2-4.6,6.7c-1.4,2.5-2.7,5.1-3.8,7.6c-1.1,2.6-2,4.5-2.7,5.9c0-2.4,0.1-4.7,0.3-7.1c0.2-2.4,0.5-4.7,1.1-7
			c0.2-0.8,0.4-1.9,0.7-3.1c0.3-1.2,0.6-2.4,0.9-3.6c0.3-1.2,0.5-2.4,0.6-3.6c0.1-1.2,0.1-2.1,0-2.9c-0.1-0.9-0.5-1.5-0.9-2
			c-0.5-0.4-1.2-0.6-2-0.5c-1.7,0.3-3.3,1-5,2.1c-1.7,1.1-2.9,2.5-3.5,4.2c-0.3,1-0.6,2.8-1,5.3c-0.3,2.5-0.6,5.4-0.8,8.6
			c-0.2,3.3-0.4,6.7-0.5,10.3c-0.1,3.6-0.2,7.1-0.2,10.4c0,3.3,0,6.3,0.1,8.8c0.1,2.6,0.2,4.5,0.4,5.7c0.1,0.7,0.4,1.3,0.9,1.7
			c0.5,0.5,1.1,0.6,1.9,0.5c1.1-0.2,1.9-0.7,2.5-1.6c0.6-0.9,1-1.8,1.2-2.7c0.2-1,0.7-2.6,1.5-4.9c0.8-2.2,1.7-4.8,2.8-7.7
			c1.1-2.9,2.2-5.8,3.5-8.9c1.3-3.1,2.5-5.9,3.8-8.4c1.2-2.6,2.5-4.7,3.6-6.4c1.1-1.7,2.1-2.6,2.9-2.7c0.6-0.1,1,0.2,1.2,0.8
			c0.2,0.6,0.3,1.1,0.4,1.5c0.1,0.8,0.4,2.2,0.7,4.3c0.3,2,0.7,4.3,1.1,6.9c0.4,2.6,1,5.3,1.6,8.1c0.6,2.8,1.3,5.3,2,7.6
			c0.7,2.3,1.5,4.1,2.3,5.6c0.8,1.4,1.6,2.1,2.4,1.9c0.8-0.1,1.4-0.4,1.8-0.9c0.4-0.5,0.8-1.1,1.1-1.8c0.5-1.1,1.1-2.7,1.9-5
			c0.8-2.3,1.8-4.9,2.8-7.7c1.1-2.9,2.2-5.8,3.5-8.9c1.2-3.1,2.5-5.9,3.7-8.5c1.2-2.6,2.5-4.7,3.7-6.4c1.2-1.7,2.3-2.6,3.2-2.8
			c0.5-0.1,0.9,0.1,1.2,0.4c0.3,0.4,0.6,0.8,0.8,1.3c0.2,0.5,0.4,1,0.5,1.6c0.1,0.6,0.2,1,0.3,1.3c0.6,3.7,1,7.3,1.2,10.9
			c0.2,3.6,0.6,7.2,1.2,10.8c0.2,1.4,0.6,3,1,4.9c0.4,1.8,1,3.5,1.9,5.1c0.8,1.6,1.9,2.8,3.1,3.8c1.3,0.9,2.9,1.2,4.9,0.9
			c2.1-0.3,4.2-1.4,6.4-3.1c2.2-1.8,4.3-3.8,6.3-6.1c2-2.3,3.8-4.7,5.4-7.2c0.7-1,1.2-1.9,1.8-2.8c0.5,1.7,1.2,3.3,2.1,4.8
			c1.4,2.4,3.5,4.2,6.2,5.4c1.1,0.5,2.2,0.7,3.4,0.7c1.2,0,2.3-0.1,3.4-0.3c3.3-0.5,6.3-1.6,9.1-3.2c2.8-1.6,5.4-3.6,7.7-5.9
			c2.3-2.2,4.3-4.7,6-7.5c0.1,4.2,0.5,8.4,1.1,12.4c0.1,0.8,0.4,1.5,0.9,2c0.5,0.5,1.2,0.7,2.1,0.6c1.1-0.2,2-0.7,2.7-1.7
			c0.7-0.9,1.2-1.9,1.5-2.9c0.9-3.2,1.8-6.4,2.7-9.6c1-3.1,2.1-6.2,3.4-9.3c1.1-2.5,2.2-5.2,3.6-8c1.3-2.8,2.8-5.4,4.5-7.6
			c0.3-0.4,0.6-0.8,1.1-1.4c0.5-0.6,0.9-0.9,1.3-1c0.5-0.1,0.8,0.2,1,0.8c0.2,0.6,0.4,1.1,0.4,1.4c0.4,2.3,0.7,4.6,0.9,6.8
			c0.2,2.3,0.5,4.5,0.9,6.8c0.2,1.5,0.6,3.2,1,5c0.4,1.8,1.1,3.5,1.9,4.9c0.9,1.5,1.9,2.7,3.3,3.6c1.3,0.9,3,1.2,5.1,0.8
			c2.2-0.4,4.4-1.5,6.5-3.3c2.1-1.8,4-3.9,5.8-6.3c0.4-0.6,0.9-1.2,1.3-1.8c0.1,0.4,0.2,0.8,0.4,1.3c0.4,1.4,1,2.7,1.7,3.9
			c0.7,1.2,1.6,2.1,2.7,2.9c1.1,0.7,2.4,1,3.8,0.7c1.6-0.3,3.1-1.1,4.5-2.6c1.4-1.5,2.8-3.1,4-5.1c1.2-1.9,2.3-3.9,3.3-5.9
			c0.9-2,1.7-3.6,2.3-5c0.2,1.4,0.5,3.2,1,5.3c0.5,2.1,1.2,4,2.2,5.9c1,1.8,2.1,3.4,3.6,4.6c1.4,1.2,3.1,1.6,5.1,1.3
			c2.1-0.3,4-1.3,6-2.8c1.9-1.5,3.7-3.3,5.2-5.4c1.6-2.1,3-4.2,4.3-6.5c0.5-0.9,1-1.7,1.4-2.5c0.2,0.7,0.4,1.4,0.7,2.1
			c0.5,1.3,1.2,2.4,2,3.3c0.8,0.9,1.9,1.6,3.1,2.1c1.2,0.5,2.7,0.5,4.3,0.3c2.4-0.4,4.7-1.6,6.9-3.6c2.2-2,4.3-4.3,6.1-6.9
			c1.9-2.6,3.5-5.4,5-8.2c1.5-2.8,2.6-5.3,3.4-7.3c0.4,1.6,0.8,3.2,1.1,4.8c0.3,1.6,0.6,3.2,0.9,4.8c0.3,1.9,0.6,4.6,0.8,8
			c0.2,3.4,0.3,7.2,0.2,11.2c-0.1,4-0.4,8.2-0.8,12.4c-0.5,4.2-1.3,8.1-2.3,11.6c-1,3.6-2.4,6.5-4.1,8.9c-1.7,2.4-3.8,3.8-6.3,4.2
			c-1.1,0.2-2,0.1-2.6-0.4c-0.6-0.4-1.1-1-1.6-1.6c-0.5-0.6-0.9-1.2-1.4-1.6c-0.4-0.5-1-0.6-1.7-0.5c-0.8,0.1-1.4,0.5-1.8,1.2
			c-0.4,0.7-0.5,1.4-0.4,2.1c0.1,0.4,0.2,0.8,0.4,1.1c0.2,0.3,0.4,0.7,0.7,1.1c1.2,1.5,2.7,2.5,4.3,3.1c1.6,0.5,3.4,0.7,5.3,0.4
			c4.9-0.8,8.9-2.9,11.8-6.3c2.9-3.4,5.2-7.6,6.8-12.5c1.6-4.9,2.5-10.4,2.9-16.3c0.4-5.9,0.5-11.8,0.2-17.7
			C586.8,362.2,586.4,356.7,585.7,351.6z M409,379.3c0-0.8,0.1-2.1,0.4-3.8c0.2-1.7,0.5-3.5,0.9-5.5c0.4-1.9,0.9-3.9,1.5-5.8
			c0.6-1.9,1.3-3.5,2-4.7c0.8-1.4,1.7-2.1,2.7-2.3c0.8-0.1,1.4,0.1,1.8,0.6c0.4,0.6,0.6,1.1,0.7,1.8c0.3,1.6,0.1,3.3-0.5,5.2
			c-0.6,1.9-1.4,3.7-2.5,5.5c-1.1,1.8-2.2,3.5-3.5,5.1C411.2,377.2,410,378.4,409,379.3z"/>
		<path class="st1" d="M642,341.1c-0.1-0.4-0.3-0.7-0.7-0.9c-0.4-0.2-0.8-0.2-1.2-0.2c-0.9,0.1-1.5,0.6-2,1.4
			c-0.4,0.8-0.8,1.6-1.1,2.3c-0.9,2.2-1.9,4.4-3.2,6.6c-1.3,2.2-2.7,4.3-4.4,6.2c-1.6,1.9-3.5,3.5-5.6,4.8c-2.1,1.4-4.4,2.2-6.9,2.7
			c-2.8,0.5-4.9,0-6.3-1.4c-1.4-1.4-2.4-3.4-2.8-6.1c-0.2-1.5-0.3-3.2-0.2-5.1c1.7-0.9,3.5-2.5,5.4-4.6c1.9-2.1,3.5-4.4,5-7
			c1.5-2.6,2.7-5.2,3.5-7.8c0.8-2.6,1.1-4.9,0.8-6.9c-0.3-2.1-1.2-3.7-2.6-4.9c-1.4-1.2-3.1-1.6-5.3-1.2c-3.2,0.5-5.9,2.2-8.2,5.1
			c-2.3,2.9-4,6.3-5.4,10.1c-1.3,3.8-2.2,7.8-2.6,11.7c-0.4,4-0.4,7.3,0.1,10c0.4,2.1,0.9,4.2,1.7,6c0.8,1.9,1.8,3.4,3.2,4.7
			c1.3,1.3,2.9,2.3,4.7,2.9c1.8,0.6,3.9,0.8,6.3,0.4c3.3-0.5,6.3-1.6,9.1-3.2c2.8-1.6,5.4-3.5,7.7-5.8c2.3-2.3,4.4-4.8,6.1-7.6
			c1.8-2.8,3.2-5.7,4.3-8.6c0.3-0.7,0.5-1.3,0.6-1.8C642.2,342.5,642.2,341.9,642,341.1z M607.8,341.6c0.3-2.4,0.8-4.8,1.5-7.3
			c0.7-2.4,1.4-4.6,2.4-6.5c0.9-1.9,2-3,3.2-3.2c0.8-0.1,1.4,0.1,1.8,0.6c0.4,0.6,0.6,1.1,0.7,1.8c0.3,1.6,0.1,3.3-0.5,5.2
			c-0.6,1.9-1.4,3.7-2.4,5.6c-1,1.8-2.1,3.6-3.4,5.1c-1.3,1.6-2.5,2.9-3.6,3.9C607.3,345.7,607.4,344,607.8,341.6z"/>
	</g>
</g>
<g>
	<path class="st0" d="M275.6,450.5c4.2,0,6.6,2.1,6.6,5.7c0,3.8-2.4,5.9-6.6,5.9h-4.4v5.4h-1.9v-17H275.6z M271.2,460.3h4.4
		c3.1,0,4.8-1.4,4.8-4c0-2.6-1.8-3.9-4.8-3.9h-4.4V460.3z"/>
	<path class="st0" d="M302.3,459c0,4.8-3.9,8.6-8.9,8.6c-5,0-8.9-3.8-8.9-8.6c0-4.8,3.9-8.6,8.9-8.6
		C298.4,450.4,302.3,454.2,302.3,459z M286.5,459c0,3.7,3.2,6.7,6.9,6.7s6.9-3,6.9-6.7c0-3.7-3.1-6.7-6.9-6.7S286.5,455.2,286.5,459
		z"/>
	<path class="st0" d="M320.4,460.5c0,4.4-2.7,7.1-7.1,7.1c-4.5,0-7.2-2.7-7.2-7.1v-10h1.9v10c0,3.3,2,5.2,5.2,5.2
		c3.2,0,5.2-1.9,5.2-5.2v-10h1.9V460.5z"/>
	<path class="st0" d="M333.3,462.1c-0.4,0-0.8,0-1.1,0h-4.5v5.4h-1.9v-17h6.5c4.3,0,6.7,2.1,6.7,5.7c0,2.8-1.4,4.7-3.8,5.5l4,5.8
		h-2.2L333.3,462.1z M332.2,460.3c3.1,0,4.8-1.4,4.8-4c0-2.6-1.7-3.9-4.8-3.9h-4.5v7.9H332.2z"/>
	<path class="st0" d="M355.6,467.5l-6.9-17h2.1l5.9,14.7l5.9-14.7h2l-6.9,17H355.6z"/>
	<path class="st0" d="M384,459c0,4.8-3.9,8.6-8.9,8.6c-5,0-8.9-3.8-8.9-8.6c0-4.8,3.9-8.6,8.9-8.6C380.1,450.4,384,454.2,384,459z
		 M368.2,459c0,3.7,3.2,6.7,6.9,6.7c3.8,0,6.9-3,6.9-6.7c0-3.7-3.1-6.7-6.9-6.7C371.3,452.3,368.2,455.2,368.2,459z"/>
	<path class="st0" d="M402.1,460.5c0,4.4-2.7,7.1-7.1,7.1c-4.5,0-7.2-2.7-7.2-7.1v-10h1.9v10c0,3.3,2,5.2,5.2,5.2
		c3.2,0,5.2-1.9,5.2-5.2v-10h1.9V460.5z"/>
	<path class="st0" d="M417.9,452l-0.8,1.8c-1.5-1-3.3-1.4-4.7-1.4c-2.2,0-3.6,0.8-3.6,2.3c0,4.4,9.6,2.1,9.5,8.3
		c0,2.8-2.5,4.7-6.1,4.7c-2.5,0-4.9-1.1-6.5-2.6l0.9-1.7c1.6,1.5,3.7,2.4,5.7,2.4c2.5,0,4-1,4-2.6c0-4.5-9.5-2.1-9.5-8.2
		c0-2.7,2.4-4.4,5.9-4.4C414.5,450.4,416.5,451,417.9,452z"/>
	<path class="st0" d="M432.1,452.4v6h7.9v1.9h-7.9v7.3h-1.9v-17H441v1.9H432.1z"/>
	<path class="st0" d="M445.3,463.2l-1.9,4.3h-2.1l7.6-17h2l7.6,17h-2.1l-1.9-4.3H445.3z M449.9,452.7l-3.8,8.6h7.6L449.9,452.7z"/>
	<path class="st0" d="M474.9,452.9l-1.2,1.5c-1.3-1.3-3.2-2.1-5-2.1c-3.8,0-6.9,3-6.9,6.7c0,3.7,3.1,6.7,6.9,6.7c1.9,0,3.7-0.8,5-2
		l1.2,1.3c-1.7,1.6-4,2.6-6.3,2.6c-4.9,0-8.8-3.8-8.8-8.6c0-4.8,3.9-8.5,8.9-8.5C471.1,450.4,473.3,451.4,474.9,452.9z"/>
	<path class="st0" d="M479.1,467.5v-17h1.9v17H479.1z"/>
	<path class="st0" d="M496.2,465.6v1.8h-9.4v-17h1.9v15.2H496.2z"/>
	<path class="st0" d="M499.9,467.5v-17h1.9v17H499.9z"/>
	<path class="st0" d="M512.8,452.4v15.1h-1.9v-15.1h-5.5v-1.9h13v1.9H512.8z"/>
	<path class="st0" d="M523.8,452.4v5.6h8.6v1.9h-8.6v5.8h9.9v1.8h-11.9v-17h11.5v1.9H523.8z"/>
	<path class="st0" d="M545.8,462.1c-0.4,0-0.8,0-1.1,0h-4.5v5.4h-1.9v-17h6.5c4.3,0,6.7,2.1,6.7,5.7c0,2.8-1.4,4.7-3.8,5.5l4,5.8
		h-2.2L545.8,462.1z M544.7,460.3c3.1,0,4.8-1.4,4.8-4c0-2.6-1.7-3.9-4.8-3.9h-4.5v7.9H544.7z"/>
	<path class="st0" d="M573.1,465.6v1.8h-9.4v-17h1.9v15.2H573.1z"/>
	<path class="st0" d="M578.5,463.2l-1.9,4.3h-2.1l7.6-17h2l7.6,17h-2.1l-1.9-4.3H578.5z M583.1,452.7l-3.8,8.6h7.6L583.1,452.7z"/>
	<path class="st0" d="M606.8,467.5l-6.9-17h2.1l5.9,14.7l5.9-14.7h2l-6.9,17H606.8z"/>
	<path class="st0" d="M619.1,467.5v-17h1.9v17H619.1z"/>
	<path class="st0" d="M628.8,452.4v5.6h8.6v1.9h-8.6v5.8h9.9v1.8h-11.9v-17h11.5v1.9H628.8z"/>
</g>
</svg>
